<svg width="178" height="48" viewBox="0 0 178 48" fill="none" xmlns="http://www.w3.org/2000/svg">
<path d="M42 13.7143H21.4286V27.4286H7.71429V48H42V13.7143Z" fill="#4039FA"/>
<path d="M7.71429 0H21.4286V13.7143H7.71429V0Z" fill="#4039FA"/>
<path d="M0 13.7143H7.71429V21.4286H0V13.7143Z" fill="#4039FA"/>
<path d="M62.66 41.36C61.06 41.36 59.58 41.07 58.22 40.49C56.88 39.91 55.7 39.1 54.68 38.06C53.68 37.02 52.9 35.8 52.34 34.4C51.78 33 51.5 31.47 51.5 29.81C51.5 28.15 51.77 26.62 52.31 25.22C52.87 23.8 53.65 22.58 54.65 21.56C55.67 20.52 56.86 19.72 58.22 19.16C59.58 18.58 61.06 18.29 62.66 18.29C64.26 18.29 65.69 18.56 66.95 19.1C68.23 19.64 69.31 20.36 70.19 21.26C71.07 22.14 71.7 23.11 72.08 24.17L68.42 25.88C68 24.76 67.29 23.84 66.29 23.12C65.29 22.38 64.08 22.01 62.66 22.01C61.26 22.01 60.02 22.34 58.94 23C57.88 23.66 57.05 24.57 56.45 25.73C55.87 26.89 55.58 28.25 55.58 29.81C55.58 31.37 55.87 32.74 56.45 33.92C57.05 35.08 57.88 35.99 58.94 36.65C60.02 37.31 61.26 37.64 62.66 37.64C64.08 37.64 65.29 37.28 66.29 36.56C67.29 35.82 68 34.89 68.42 33.77L72.08 35.48C71.7 36.54 71.07 37.52 70.19 38.42C69.31 39.3 68.23 40.01 66.95 40.55C65.69 41.09 64.26 41.36 62.66 41.36ZM82.7495 41.36C81.1495 41.36 79.6895 40.99 78.3695 40.25C77.0695 39.51 76.0295 38.5 75.2495 37.22C74.4895 35.94 74.1095 34.48 74.1095 32.84C74.1095 31.2 74.4895 29.74 75.2495 28.46C76.0295 27.18 77.0695 26.17 78.3695 25.43C79.6695 24.69 81.1295 24.32 82.7495 24.32C84.3495 24.32 85.7995 24.69 87.0995 25.43C88.3995 26.17 89.4295 27.18 90.1895 28.46C90.9695 29.72 91.3595 31.18 91.3595 32.84C91.3595 34.48 90.9695 35.94 90.1895 37.22C89.4095 38.5 88.3695 39.51 87.0695 40.25C85.7695 40.99 84.3295 41.36 82.7495 41.36ZM82.7495 37.76C83.6295 37.76 84.3995 37.55 85.0595 37.13C85.7395 36.71 86.2695 36.13 86.6495 35.39C87.0495 34.63 87.2495 33.78 87.2495 32.84C87.2495 31.88 87.0495 31.04 86.6495 30.32C86.2695 29.58 85.7395 29 85.0595 28.58C84.3995 28.14 83.6295 27.92 82.7495 27.92C81.8495 27.92 81.0595 28.14 80.3795 28.58C79.6995 29 79.1595 29.58 78.7595 30.32C78.3795 31.04 78.1895 31.88 78.1895 32.84C78.1895 33.78 78.3795 34.63 78.7595 35.39C79.1595 36.13 79.6995 36.71 80.3795 37.13C81.0595 37.55 81.8495 37.76 82.7495 37.76ZM100.16 41.36C98.8998 41.36 97.7998 41.08 96.8598 40.52C95.9398 39.96 95.2298 39.18 94.7298 38.18C94.2498 37.18 94.0098 36.01 94.0098 34.67V24.68H97.9398V34.34C97.9398 35.02 98.0698 35.62 98.3298 36.14C98.6098 36.64 98.9998 37.04 99.4998 37.34C100.02 37.62 100.6 37.76 101.24 37.76C101.88 37.76 102.45 37.62 102.95 37.34C103.45 37.04 103.84 36.63 104.12 36.11C104.4 35.59 104.54 34.97 104.54 34.25V24.68H108.47V41H104.75V37.79L105.08 38.36C104.7 39.36 104.07 40.11 103.19 40.61C102.33 41.11 101.32 41.36 100.16 41.36ZM112.123 41V24.68H115.813V28.31L115.513 27.77C115.893 26.55 116.483 25.7 117.283 25.22C118.103 24.74 119.083 24.5 120.223 24.5H121.183V27.98H119.773C118.653 27.98 117.753 28.33 117.073 29.03C116.393 29.71 116.053 30.67 116.053 31.91V41H112.123ZM129.554 41.36C127.814 41.36 126.294 40.95 124.994 40.13C123.714 39.29 122.834 38.16 122.354 36.74L125.294 35.33C125.714 36.25 126.294 36.97 127.034 37.49C127.794 38.01 128.634 38.27 129.554 38.27C130.274 38.27 130.844 38.11 131.264 37.79C131.684 37.47 131.894 37.05 131.894 36.53C131.894 36.21 131.804 35.95 131.624 35.75C131.464 35.53 131.234 35.35 130.934 35.21C130.654 35.05 130.344 34.92 130.004 34.82L127.334 34.07C125.954 33.67 124.904 33.06 124.184 32.24C123.484 31.42 123.134 30.45 123.134 29.33C123.134 28.33 123.384 27.46 123.884 26.72C124.404 25.96 125.114 25.37 126.014 24.95C126.934 24.53 127.984 24.32 129.164 24.32C130.704 24.32 132.064 24.69 133.244 25.43C134.424 26.17 135.264 27.21 135.764 28.55L132.764 29.96C132.484 29.22 132.014 28.63 131.354 28.19C130.694 27.75 129.954 27.53 129.134 27.53C128.474 27.53 127.954 27.68 127.574 27.98C127.194 28.28 127.004 28.67 127.004 29.15C127.004 29.45 127.084 29.71 127.244 29.93C127.404 30.15 127.624 30.33 127.904 30.47C128.204 30.61 128.544 30.74 128.924 30.86L131.534 31.64C132.874 32.04 133.904 32.64 134.624 33.44C135.364 34.24 135.734 35.22 135.734 36.38C135.734 37.36 135.474 38.23 134.954 38.99C134.434 39.73 133.714 40.31 132.794 40.73C131.874 41.15 130.794 41.36 129.554 41.36ZM139.084 41V18.65H148.504C149.984 18.65 151.244 18.91 152.284 19.43C153.344 19.93 154.154 20.65 154.714 21.59C155.294 22.51 155.584 23.63 155.584 24.95C155.584 25.97 155.304 26.93 154.744 27.83C154.204 28.71 153.334 29.44 152.134 30.02V28.13C153.234 28.55 154.104 29.07 154.744 29.69C155.384 30.31 155.834 31 156.094 31.76C156.354 32.52 156.484 33.32 156.484 34.16C156.484 36.3 155.774 37.98 154.354 39.2C152.954 40.4 151.004 41 148.504 41H139.084ZM143.164 37.4H148.924C149.984 37.4 150.824 37.11 151.444 36.53C152.084 35.93 152.404 35.14 152.404 34.16C152.404 33.18 152.084 32.39 151.444 31.79C150.824 31.19 149.984 30.89 148.924 30.89H143.164V37.4ZM143.164 27.32H148.714C149.554 27.32 150.224 27.08 150.724 26.6C151.224 26.1 151.474 25.46 151.474 24.68C151.474 23.9 151.224 23.28 150.724 22.82C150.224 22.36 149.554 22.13 148.714 22.13H143.164V27.32ZM159.496 41V24.68H163.426V41H159.496ZM159.496 22.85V18.65H163.426V22.85H159.496ZM174.495 41.18C172.655 41.18 171.225 40.68 170.205 39.68C169.205 38.66 168.705 37.23 168.705 35.39V28.19H165.885V24.68H166.185C166.985 24.68 167.605 24.47 168.045 24.05C168.485 23.63 168.705 23.02 168.705 22.22V20.96H172.635V24.68H176.385V28.19H172.635V35.18C172.635 35.72 172.725 36.18 172.905 36.56C173.105 36.94 173.405 37.23 173.805 37.43C174.225 37.63 174.755 37.73 175.395 37.73C175.535 37.73 175.695 37.72 175.875 37.7C176.075 37.68 176.265 37.66 176.445 37.64V41C176.165 41.04 175.845 41.08 175.485 41.12C175.125 41.16 174.795 41.18 174.495 41.18Z" fill="#4039FA"/>
</svg>
